<?xml version="1.0" encoding="utf-8"?>
<!-- Uploaded to: SVG Repo, www.svgrepo.com, Generator: SVG Repo Mixer Tools -->
<svg width="800px" height="800px" viewBox="0 0 1024 1024" class="icon"  version="1.1" xmlns="http://www.w3.org/2000/svg"><path d="M391.166 156.304H501.7c228.857 0 422.263 184.597 422.263 403.115C923.963 780.312 742.427 960 519.315 960c-235.128 0-419.278-193.554-419.278-440.625 0-10.564 8.584-19.11 19.109-19.11h113.159c10.602 0 19.11 8.546 19.11 19.11 0 218.781 138.391 296.747 267.9 296.747 134.92 0 253.27-123.2 253.27-263.605 0-131.897-124.059-243.34-270.885-243.34l-106.555-3.227-3.979-149.646z" fill="#FF3B30" /><path d="M407.884 309.176v77.275c0 6.941-3.73 13.267-9.777 16.664-6.011 3.398-13.398 3.209-19.295-0.375L128.305 249.013c-5.71-3.508-9.147-9.669-9.147-16.383 0.078-6.681 3.585-12.876 9.333-16.312L378.998 66.729c5.894-3.542 13.285-3.657 19.221-0.221 6.008 3.358 9.665 9.702 9.665 16.609V309.176z" fill="#FF3B30" /><path d="M439.717 307.301l40.724-150.999h-72.557v150.035z" fill="#070707" /></svg>